<svg width="90" class="svg" height="90" viewBox="0 0 90 90" fill="none" xmlns="http://www.w3.org/2000/svg">
<path d="M39 9C38.6026 8.99461 38.2081 9.06822 37.8394 9.21656C37.4707 9.36491 37.1351 9.58503 36.8522 9.86414C36.5693 10.1432 36.3446 10.4758 36.1913 10.8424C36.038 11.2091 35.959 11.6026 35.959 12H18C17.6025 11.9944 17.2078 12.0678 16.8389 12.2161C16.47 12.3643 16.1342 12.5844 15.8511 12.8635C15.568 13.1427 15.3432 13.4753 15.1897 13.842C15.0363 14.2088 14.9573 14.6024 14.9573 15C14.9573 15.3976 15.0363 15.7912 15.1897 16.158C15.3432 16.5247 15.568 16.8573 15.8511 17.1365C16.1342 17.4156 16.47 17.6357 16.8389 17.7839C17.2078 17.9322 17.6025 18.0056 18 18H72C72.3975 18.0056 72.7922 17.9322 73.1611 17.7839C73.53 17.6357 73.8658 17.4156 74.1489 17.1365C74.432 16.8573 74.6568 16.5247 74.8103 16.158C74.9637 15.7912 75.0427 15.3976 75.0427 15C75.0427 14.6024 74.9637 14.2088 74.8103 13.842C74.6568 13.4753 74.432 13.1427 74.1489 12.8635C73.8658 12.5844 73.53 12.3643 73.1611 12.2161C72.7922 12.0678 72.3975 11.9944 72 12H54.041C54.041 11.6026 53.9621 11.2091 53.8087 10.8424C53.6554 10.4758 53.4307 10.1432 53.1478 9.86414C52.8649 9.58503 52.5293 9.36491 52.1606 9.21656C51.7919 9.06822 51.3974 8.99461 51 9H39ZM18 24V72C18 75.315 20.685 78 24 78H66C69.315 78 72 75.315 72 72V24H18Z" fill="black"/>
</svg>
